<?xml version="1.0" encoding="UTF-8"?>
<svg xmlns="http://www.w3.org/2000/svg" xml:space="preserve" version="1.1"
     style="shape-rendering:geometricPrecision; text-rendering:geometricPrecision; image-rendering:optimizeQuality; fill-rule:evenodd; clip-rule:evenodd"     viewBox="0 0 7500 4500" width="205" height="45"
>
 <defs>
   <style type="text/css">
   <![CDATA[
    .fil3 {fill:#34A853}
    .fil4 {fill:#4688F1}
    .fil2 {fill:#E94235}
    .fil0 {fill:#FBBC04}
    .fil1 {fill:white}
   ]]>
  </style>
 </defs>
  <g id="Слой_x0020_1">
  <metadata id="CorelCorpID_0Corel-Layer"/>
    <path class="fil0"
          d="M6575.07 1902.09l0 0c177.46,-113.21 410.48,-125.52 604.78,-12.11 276.65,161.47 370.02,516.64 208.55,793.28 -51.09,87.54 -121.59,156.71 -202.85,205.28 0.08,0.12 -20.44,11.69 -22.37,12.72l-1997.62 1133.21c-198.54,119.6 -405.72,148.22 -620.76,22.71 -223.17,-130.26 -384.89,-516.85 -202.51,-788.97 111.84,-166.87 174.21,-183.12 279.45,-250.47l1953.33 -1115.65z"/>
    <path class="fil2"
          d="M2549.62 723.16l0.01 0.01c177.45,-113.21 410.47,-125.52 604.77,-12.12 276.66,161.48 370.03,516.64 208.56,793.29 -51.09,87.54 -121.59,156.7 -202.85,205.27 0.08,0.13 -20.45,11.69 -22.37,12.73l-1997.63 1133.2c-198.53,119.6 -405.71,148.22 -620.75,22.71 -223.17,-130.25 -384.9,-516.85 -202.51,-788.97 111.84,-166.86 174.2,-183.11 279.45,-250.46l1953.32 -1115.66z"/>
    <path class="fil3"
          d="M7160.6 1880.14l0 0.01c187.23,96.19 315.32,291.24 315.32,516.21 0,320.33 -259.67,580.01 -579.99,580.01 -101.36,0 -196.63,-26.03 -279.54,-71.72 -0.07,0.13 -20.41,-11.77 -22.27,-12.91l-1985.67 -1154.03c-203.37,-111.18 -332.52,-275.68 -332.52,-524.67 0,-258.4 252.36,-592.95 579.31,-572.61 200.5,12.48 245.97,58.15 357.18,115.1l1948.18 1124.61z"/>
    <path class="fil4"
          d="M3101.76 3047.69l-0.01 0.01c187.23,96.19 315.32,291.23 315.32,516.21 0,320.33 -259.67,580 -579.99,580 -101.36,0 -196.63,-26.02 -279.54,-71.72 -0.07,0.13 -20.4,-11.76 -22.27,-12.9l-1985.66 -1154.03c-203.38,-111.18 -332.53,-275.68 -332.53,-524.67 0,-258.4 252.36,-592.96 579.31,-572.61 200.5,12.48 245.97,58.15 357.18,115.09l1948.19 1124.62z"/>
 </g>
</svg>
