<?xml version="1.0" encoding="utf-8"?>
<svg version="1.1" id="Layer_1" xmlns="http://www.w3.org/2000/svg" viewBox="0 0 680 180" width="680px" height="180px">
  <style type="text/css">
    .st0{fill:#221F3A;fill-opacity:0;}
    .st1{fill:#221F3A;}
    .st2{fill:#25A4F2;}
  </style>
  <title>KUG_Logo</title>
  <path class="st0" d="M185.1,0h678.5v76.1H185.1V0z"/>
  <path class="st1" d="M223.9,60.2l-12.4-16.4l-3.2,3.8v12.6h-8.7v-41h8.7v18.3l14.5-18.3h10.8l-16.3,19.3l17.4,21.7L223.9,60.2z
	 M250.6,60.9c-8.3-0.4-14.8-7.4-14.4-15.7c0.4-8.3,7.4-14.8,15.7-14.4s14.8,7.4,14.4,15.7c-0.2,3.8-1.7,7.4-4.4,10
	C258.9,59.5,254.8,61.1,250.6,60.9z M250.6,54c2.1,0.1,4.1-0.8,5.5-2.4c1.5-1.7,2.2-4,2.1-6.2c0.1-2.2-0.7-4.4-2.1-6.1
	c-1.4-1.6-3.4-2.5-5.5-2.5c-2.1,0-4,0.8-5.4,2.4c-1.5,1.7-2.3,4-2.1,6.2c-0.1,2.3,0.7,4.6,2.1,6.3C246.5,53.2,248.5,54,250.6,54
	L250.6,54z M282,60.9c-5.6,0-8.4-2.7-8.4-8.1V37.3h-4.9v-6.8h4.9v-8.2h7.9v8.1h6v6.9h-6v13.4c0,0.8,0.2,1.6,0.7,2.3
	c0.5,0.6,1.2,1,2,0.9c1,0.1,2-0.2,2.7-0.8l1.7,5.9C287.2,60.3,285,60.9,282,60.9z M292.9,60.2v-41h7.8v41H292.9z M312.3,27.3
	c-1.2,0-2.4-0.5-3.3-1.3c-0.9-0.9-1.4-2.1-1.4-3.3c0-1.2,0.5-2.4,1.4-3.3c0.9-0.9,2.1-1.3,3.3-1.3c1.2,0,2.4,0.5,3.3,1.3
	c0.9,0.9,1.4,2,1.3,3.3C316.9,25.2,314.9,27.2,312.3,27.3L312.3,27.3z M308.4,60.2V30.5h7.8v29.7H308.4z M344,60.2v-18
	c0-3.7-1.8-5.5-5.5-5.5c-2.7-0.1-5.2,1.2-6.8,3.5v20H324V30.5h7.8v3.9c1.1-1.3,2.5-2.4,4-3.2c2-1,4.1-1.5,6.3-1.4
	c3.3,0,5.7,0.9,7.3,2.6c1.7,1.9,2.5,4.4,2.4,6.9v20.9H344z"/>
  <path class="st1" d="M227.8,113.6l-19.5-26.7v26.7h-8.7v-41h9l19,25.8V72.6h8.7v41H227.8z M248.1,80.7c-1.2,0-2.4-0.5-3.3-1.4
	c-0.9-0.9-1.4-2.1-1.4-3.3c0-1.2,0.5-2.4,1.4-3.3c0.9-0.9,2.1-1.3,3.3-1.3c1.2,0,2.4,0.4,3.3,1.3c0.9,0.9,1.4,2.1,1.4,3.3
	C252.7,78.6,250.7,80.7,248.1,80.7C248.1,80.7,248.1,80.7,248.1,80.7L248.1,80.7z M244.2,113.6V83.9h7.8v29.7H244.2z M258.4,113.6
	v-5.8l13.4-17h-13.4v-6.8h24v5.6l-13.6,17.2h13.8v6.8L258.4,113.6z M309.3,113.6V95.5c0-3.6-1.8-5.4-5.5-5.4c-2.7,0-5.2,1.3-6.8,3.5
	v20h-7.8V72.6h7.8v15.2c1.1-1.3,2.5-2.4,4.1-3.2c2-1,4.2-1.5,6.4-1.4c3.3,0,5.8,0.8,7.3,2.5c1.7,1.9,2.5,4.3,2.4,6.8v21.1H309.3z
	 M344.9,113.6v-18c0-3.7-1.8-5.5-5.5-5.5c-2.7-0.1-5.3,1.2-6.8,3.5v20h-7.8V83.9h7.8v3.9c1.1-1.3,2.5-2.4,4.1-3.2
	c2-1,4.1-1.5,6.3-1.4c3.3,0,5.7,0.9,7.3,2.5c1.7,1.9,2.5,4.4,2.4,6.9v21L344.9,113.6z M360.5,118.2c0.8,0.3,1.6,0.5,2.5,0.5
	c2.1,0,3.5-0.7,4.1-2.1l1.1-2.5l-12-30.1h8.4l7.7,20.6l7.7-20.6h8.4l-13.9,34.6c-0.8,2.4-2.4,4.4-4.6,5.6c-2.1,1-4.4,1.6-6.7,1.5
	c-1.3,0-2.6-0.1-3.9-0.4L360.5,118.2z M436.1,113.6l-19.5-26.7v26.7h-8.8v-41h9l19,25.8V72.6h8.7v41H436.1z M466.2,114.3
	c-8.6,0.5-15.9-6.1-16.4-14.7c-0.5-8.6,6.1-15.9,14.7-16.4c0.6,0,1.1,0,1.7,0c4.2-0.1,8.3,1.4,11.3,4.4c5.9,6.3,5.9,16.1,0,22.4
	C474.5,112.9,470.4,114.5,466.2,114.3z M466.2,107.4c2.1,0.1,4.1-0.8,5.5-2.4c2.8-3.6,2.8-8.7,0-12.4c-1.4-1.6-3.4-2.5-5.5-2.5
	c-2.1,0-4,0.8-5.4,2.4c-1.5,1.7-2.3,4-2.1,6.2c-0.1,2.3,0.7,4.6,2.1,6.3C462.2,106.6,464.2,107.4,466.2,107.4L466.2,107.4z
	 M495.4,113.6l-11.9-29.7h8.4l7.7,20.6l7.7-20.6h8.4l-11.9,29.6L495.4,113.6z M531.4,125.7c-2.3,0-4.7-0.3-6.9-1
	c-2.2-0.7-4.2-1.9-5.9-3.5l3.5-5.7c2.2,2.5,5.3,3.7,9.3,3.7c2.2,0.1,4.3-0.6,6-2c1.5-1.4,2.3-3.5,2.2-5.5v-3
	c-2.1,2.9-5.5,4.7-9.2,4.7c-3.6,0.1-7.1-1.4-9.5-4.1c-2.4-2.7-3.6-6.4-3.6-11c0-4.6,1.2-8.3,3.5-11c2.4-2.8,5.9-4.3,9.6-4.1
	c3.6-0.1,7,1.6,9.2,4.5v-3.8h7.9v27.7c0,4.5-1.4,8-4.2,10.4C540.5,124.5,536.5,125.7,531.4,125.7L531.4,125.7z M532.9,106.5
	c1.3,0,2.7-0.3,3.8-1c1.1-0.6,2.1-1.4,2.9-2.4v-9.6c-0.7-1-1.7-1.9-2.9-2.4c-1.2-0.6-2.5-0.9-3.8-1c-2-0.1-4,0.7-5.4,2.2
	c-2.8,3.5-2.8,8.5,0,12C528.9,105.8,530.9,106.5,532.9,106.5z M569,114.3c-8.6-0.2-15.4-7.4-15.2-16c0.2-8.6,7.4-15.4,16-15.2
	c3.9,0.1,7.6,1.7,10.4,4.4c5.9,6.3,5.9,16.1,0,22.4C577.3,112.9,573.2,114.5,569,114.3z M569,107.4c2.1,0.1,4.1-0.8,5.5-2.4
	c2.8-3.6,2.8-8.7,0-12.4c-1.4-1.6-3.4-2.5-5.5-2.5c-2.1,0-4.1,0.8-5.4,2.4c-1.5,1.7-2.3,4-2.1,6.2c-0.1,2.3,0.7,4.6,2.1,6.3
	C565,106.6,566.9,107.4,569,107.4L569,107.4z M590.5,113.6V83.9h7.8V88c1.2-1.4,2.6-2.5,4.1-3.4c1.6-0.9,3.5-1.4,5.3-1.4v7.6
	l-2.1-0.2c-1.5,0-2.9,0.4-4.2,1c-1.2,0.5-2.3,1.3-3.1,2.4v19.6H590.5z M626.4,114.4c-8.6-0.2-15.4-7.4-15.1-16
	c0.2-8.6,7.4-15.4,16-15.1c3.9,0.1,7.6,1.7,10.4,4.4c5.9,6.3,5.9,16.1,0,22.4C634.7,112.9,630.6,114.5,626.4,114.4L626.4,114.4z
	 M626.4,107.4c2.1,0.1,4.1-0.8,5.5-2.4c2.8-3.6,2.8-8.7,0-12.4c-1.4-1.6-3.4-2.5-5.5-2.5c-2.1,0-4.1,0.8-5.4,2.4
	c-1.5,1.7-2.3,4-2.1,6.2c-0.1,2.3,0.7,4.6,2.1,6.3C622.4,106.6,624.3,107.4,626.4,107.4L626.4,107.4z M668.3,113.7v-3.8
	c-2.1,2.9-5.5,4.6-9.2,4.6c-3.7,0.1-7.2-1.4-9.5-4.2c-2.4-2.8-3.6-6.6-3.6-11.3c0-4.7,1.2-8.5,3.6-11.3c2.3-2.8,5.9-4.4,9.5-4.3
	c3.6-0.1,7,1.6,9.2,4.5V72.6h7.9v41L668.3,113.7z M661.5,107.4c1.3,0,2.7-0.3,3.9-1c1.2-0.5,2.1-1.4,2.9-2.4V93.6
	c-0.7-1-1.7-1.9-2.9-2.4c-1.2-0.6-2.5-0.9-3.9-1c-2.1-0.1-4.1,0.8-5.4,2.4c-1.4,1.8-2.2,4-2.1,6.3c-0.1,2.2,0.6,4.4,2,6.2
	C657.4,106.6,659.5,107.5,661.5,107.4L661.5,107.4z"/>
  <path class="st1" d="M211.3,161c-2.6,0.2-5.2-0.7-7.2-2.4c-1.8-1.8-2.7-4.3-2.6-6.9V138h4v13.5c-0.1,1.6,0.4,3.1,1.4,4.3
	c1.1,1.1,2.7,1.7,4.3,1.6c1.6,0.1,3.2-0.5,4.3-1.6c1-1.2,1.5-2.7,1.5-4.3V138h4v13.6c0.2,2.6-0.8,5.1-2.6,6.9
	C216.5,160.3,213.9,161.2,211.3,161z M231.3,161c-2.6,0.1-5.1-0.8-7-2.5l1.6-2.6c0.7,0.7,1.6,1.3,2.6,1.7c0.9,0.4,1.9,0.6,2.9,0.6
	c0.8,0.1,1.7-0.2,2.4-0.6c0.5-0.4,0.8-1,0.8-1.6c0-0.6-0.4-1.1-1-1.3c-1.3-0.5-2.6-0.9-3.9-1.1c-3.3-0.7-4.9-2.3-4.9-4.7
	c0-1.4,0.6-2.7,1.8-3.6c1.3-1,3-1.5,4.6-1.4c2.3-0.1,4.6,0.8,6.3,2.3l-1.5,2.5c-0.6-0.6-1.3-1.1-2-1.4c-0.9-0.4-1.8-0.6-2.8-0.6
	c-0.8,0-1.6,0.2-2.2,0.6c-0.5,0.3-0.8,0.8-0.8,1.4c0,0.5,0.4,1,0.9,1.2c1.3,0.5,2.7,0.9,4.1,1.2c3.3,0.8,4.9,2.4,4.9,5
	c0,1.5-0.7,2.9-1.9,3.7C234.7,160.6,233,161.1,231.3,161L231.3,161z M249.2,161c-2.3,0.1-4.5-0.8-6.2-2.4c-3.1-3.5-3.1-8.8,0-12.3
	c1.6-1.6,3.7-2.5,5.9-2.4c2.2-0.1,4.4,0.8,5.8,2.5c1.5,1.8,2.3,4,2.2,6.4v0.8h-12.6c0.1,1.3,0.7,2.4,1.6,3.3c1,0.8,2.3,1.3,3.6,1.2
	c0.8,0,1.7-0.2,2.5-0.4c0.8-0.3,1.5-0.7,2.2-1.3l1.6,2.3C254,160.3,251.6,161.1,249.2,161L249.2,161z M253.5,151.1
	c0-1.2-0.5-2.3-1.4-3.1c-0.9-0.8-2-1.3-3.2-1.2c-1.2,0-2.3,0.4-3.2,1.2c-0.8,0.8-1.3,1.9-1.4,3.1H253.5z M260.5,160.6v-16.3h3.5v2.4
	c0.6-0.8,1.4-1.5,2.3-2c0.9-0.5,2-0.8,3-0.8v3.5l-1.2-0.1c-0.8,0-1.7,0.2-2.4,0.6c-0.7,0.3-1.3,0.9-1.8,1.5v11.2L260.5,160.6z
	 M291.8,161c-3.2,0.1-6.2-1.1-8.5-3.3c-4.5-4.7-4.5-12.1,0-16.8c2.3-2.2,5.3-3.4,8.5-3.3c3.6-0.1,7.1,1.7,9.1,4.7l-3.2,1.8
	c-0.6-0.9-1.5-1.6-2.4-2.1c-1.1-0.6-2.2-0.9-3.5-0.9c-2.1-0.1-4.1,0.8-5.6,2.3c-1.5,1.6-2.3,3.6-2.2,5.8c-0.1,2.2,0.7,4.3,2.2,5.8
	c2.3,2.3,5.7,3,8.7,1.7c0.8-0.3,1.5-0.8,2.2-1.4v-3.5h-6.7v-3.5h10.7v8.4C298.8,159.6,295.4,161.1,291.8,161z M305.2,160.6v-16.4
	h3.5v2.4c0.6-0.8,1.4-1.5,2.3-2c0.9-0.5,2-0.8,3-0.8v3.5l-1.2-0.1c-0.8,0-1.7,0.2-2.4,0.6c-0.7,0.3-1.3,0.9-1.8,1.5v11.2H305.2z
	 M324.2,161c-2.3,0.1-4.4-0.8-6-2.4c-3.1-3.5-3.1-8.8,0-12.4c3.4-3.2,8.7-3.2,12.1,0c1.6,1.6,2.5,3.9,2.4,6.2
	c0.1,2.3-0.8,4.5-2.4,6.2C328.7,160.2,326.5,161.1,324.2,161L324.2,161z M324.2,157.9c1.3,0.1,2.6-0.5,3.5-1.5
	c0.9-1.1,1.4-2.5,1.3-3.9c0.1-1.4-0.4-2.8-1.3-3.9c-0.9-1-2.1-1.6-3.5-1.5c-1.3,0-2.5,0.5-3.4,1.5c-0.9,1.1-1.4,2.5-1.3,3.9
	c-0.1,1.4,0.4,2.8,1.3,4C321.7,157.4,322.9,157.9,324.2,157.9L324.2,157.9z M347.3,160.6v-2.2c-0.7,0.7-1.5,1.3-2.4,1.8
	c-1,0.5-2.2,0.8-3.4,0.8c-3.5,0-5.2-1.7-5.2-5.2v-11.5h3.5v10.3c0,2.2,1.1,3.3,3.3,3.3c0.9,0,1.7-0.2,2.5-0.6
	c0.7-0.4,1.3-0.9,1.7-1.5v-11.5h3.5v16.4H347.3z M364.2,161c-2.1,0-4.1-1-5.2-2.7v8.5h-3.5v-22.5h3.5v2.2c1.2-1.7,3.2-2.7,5.2-2.6
	c2-0.1,3.9,0.8,5.2,2.3c2.7,3.7,2.7,8.7,0,12.5C368.2,160.2,366.2,161.1,364.2,161L364.2,161z M363.2,157.9c1.3,0.1,2.5-0.5,3.4-1.5
	c0.9-1.1,1.3-2.5,1.2-3.9c0.1-1.4-0.4-2.8-1.3-3.9c-0.8-1-2-1.5-3.3-1.5c-1.7,0-3.2,0.8-4.2,2.2v6.5c0.5,0.7,1.1,1.2,1.8,1.6
	C361.5,157.7,362.3,157.9,363.2,157.9L363.2,157.9z"/>
  <path class="st0" d="M3.4,6.5h167.3v167.2H3.4V6.5z"/>
  <path class="st2" d="M141.2,39.6L108.4,6.9L75.7,39.6l32.7,32.7V39.6C108.4,39.6,141.7,39.1,141.2,39.6z"/>
  <path class="st2" d="M161.2,92.4V46.2H115v46.2l23.1-23C138.1,69.4,162,92.4,161.2,92.4z"/>
  <path class="st2" d="M138.1,144l32.7-32.7l-32.7-32.7l-32.7,32.7h32.7C138.1,111.3,138.7,144.5,138.1,144z"/>
  <path class="st2" d="M85.3,164.1h46.2v-46.2H85.3l23,23.1C108.4,141,85.3,164.9,85.3,164.1z"/>
  <path class="st2" d="M33.7,141l32.7,32.7L99.1,141l-32.7-32.7V141C66.4,141,33.2,141.6,33.7,141z"/>
  <path class="st2" d="M13.6,88.2v46.2h46.2V88.2l-23,23C36.8,111.3,12.8,88.2,13.6,88.2z"/>
  <path class="st2" d="M36.7,36.6L4,69.3L36.7,102l32.7-32.7H36.7C36.7,69.3,36.2,36.2,36.7,36.6z"/>
  <path class="st1" d="M89.6,16.6H43.3v46.2h46.2L66.4,39.6C66.4,39.6,89.6,15.7,89.6,16.6z"/>
</svg>
